#!OML:ASF F:\VICON\USERDATA\INSTALL\rory3\rory3.ASF
:FULLY-SPECIFIED
:DEGREES
132
root -0.8243731776461096 17.50344239089695 20.237059677821 2.3111954163939963 -3.978564374758374 -3.141449273769115
lfemur -20.65081106145573 4.217962271715808 -20.414188094412754
ltibia 55.28477220235583
lfoot 9.530935665403028 -12.164519130781812
ltoes -20.760978190339593
rfemur -16.79527720985161 4.461542907407026 30.31163816108379
rtibia 84.25384104348157
rfoot 0.20736075233308826 -9.970483522721029
rtoes -8.327864783170755
lowerback 16.060099344456184 1.5667016748322702 2.2704500501095874
upperback -0.3882829972271974 2.700212882174023 1.2553418971029737
thorax -9.526131978668868 1.2816939650776866 -0.4172143233283828
lowerneck -17.651734734828494 -4.791647522007663 -2.0274581420066036
upperneck 12.27090761908416 -6.5665462413470195 3.103730824046277
head 7.3627497456593245 -2.967661399916506 0.6417866513890791
lclavicle 1.124539100333383e-15 -1.4766016290160211e-15
lhumerus -42.49617574947023 -15.25673694571185 97.773354794564
lradius 110.95876310747083
lwrist 27.793785652553268
lhand -29.5145927644443 -0.6344993602014705
lfingers 7.125019999999998
lthumb -3.12773623904636 29.560685884399824
rclavicle 1.1245391004091838e-15 -1.476601628965091e-15
rhumerus -53.432876664806784 8.77228375031356 -95.5991199294896
rradius 117.23719315069253
rwrist -15.157185605751533
rhand -19.637491966049417 41.987205237175665
rfingers 7.125019999999998
rthumb 5.709924135809608 11.89813400142811
133
root -0.8233099223094537 17.475883932800198 20.421508411440296 2.237645393298705 -3.926166243179849 -3.0772885219685806
lfemur -20.338729457503646 4.211951221021552 -20.451728155511386
ltibia 55.1819798583736
lfoot 9.453594017059688 -12.33864756330283
ltoes -19.628310693520596
rfemur -16.836931019556275 4.496975407634067 30.25497805463853
rtibia 84.3452891280256
rfoot 0.2546965649872055 -9.850253841586104
rtoes -8.288696057056399
lowerback 16.11122591974261 1.5685947342139606 2.204314267944773
upperback -0.35839747744990824 2.6945519241757587 1.2100035045762179
thorax -9.559915049010835 1.2812430557307388 -0.3967323606755795
lowerneck -17.674993089267073 -4.819061845882409 -2.041548220630934
upperneck 11.97536601012459 -6.613177567548407 3.2250774214425
head 7.195329901086735 -2.985283534675907 0.6961075891282494
lclavicle 1.124539100334054e-15 -1.4766016290156786e-15
lhumerus -42.09614427136976 -15.511403510166486 97.83996931084866
lradius 110.32841981866822
lwrist 28.47220551036318
lhand -29.762098421444552 -0.68944866410948
lfingers 7.125019999999998
lthumb -3.3073865752562606 29.492114038338954
rclavicle 1.1245391004069395e-15 -1.4766016289668956e-15
rhumerus -53.32455526891745 8.838303597404407 -95.61585424780337
rradius 117.051963470055
rwrist -14.865895886702347
rhand -19.65326118594879 41.57846449305033
rfingers 7.125019999999998
rthumb 5.677085235628079 11.374585228007543
134
root -0.8221544016174892 17.437321386959415 20.694819796101747 2.149733714418594 -3.8746651211843286 -2.9907349788096624
lfemur -20.06389867496428 4.228662525209063 -20.50566784995809
ltibia 55.20861545238851
lfoot 7.985694592737104 -12.830795358172933
ltoes -20.702992605452373
rfemur -16.85817228032602 4.560590088819406 30.164955230367433
rtibia 84.52471598045828
rfoot 0.26944311620444994 -9.845398588444901
rtoes -7.559177383029487
lowerback 16.174877900923946 1.5725090354558653 2.116815735590719
upperback -0.31773246349243756 2.688400008326675 1.1715080440953698
thorax -9.611113646054992 1.2801085609219134 -0.36891089373539787
lowerneck -17.66921180033078 -4.844052756269951 -2.052687908243159
upperneck 11.645333397487518 -6.654788637749144 3.358604577174617
head 6.997627344565851 -3.0063363378075723 0.7552514076448525
lclavicle 1.124539100333756e-15 -1.4766016290161355e-15
lhumerus -41.544737155167375 -15.876535569115903 97.87997887640235
lradius 109.70508046342643
lwrist 28.384970673582266
lhand -29.962796173062802 -0.6754143650662339
lfingers 7.125019999999998
lthumb -3.262245588393193 29.644413785588867
rclavicle 1.1245391004082622e-15 -1.4766016289661937e-15
rhumerus -53.233738103545065 8.867731464451243 -95.68277067945108
rradius 116.88060811180277
rwrist -14.464353857508804
rhand -19.64750801866593 41.1090681118885
rfingers 7.125019999999998
rthumb 5.688737381515937 10.94573072500808
135
root -0.8244075910051037 17.41982819063296 21.085889041512743 2.1192466658164335 -3.726352907105184 -2.910045714152087
lfemur -19.88510064012877 4.196787407206515 -20.559270990224057
ltibia 55.385470479079544
lfoot 7.40881624182579 -12.603985798332484
ltoes -19.622680228548354
rfemur -16.864044390377085 4.555943321306101 30.088627971078438
rtibia 84.61587688602253
rfoot 0.43392320326703615 -9.860075049457679
rtoes -6.2948632603446
lowerback 16.229430932157943 1.5636887908060983 2.0336763682354366
upperback -0.29675282228760824 2.679487734154163 1.152847086045861
thorax -9.74527581413419 1.2694157887703286 -0.34652720175137675
lowerneck -17.65113103276224 -4.847615187865614 -2.083060188613678
upperneck 11.309369694211432 -6.662655043294446 3.4988944024513424
head 6.791984736769891 -3.006604722983124 0.8222914290191814
lclavicle 1.1245391003357912e-15 -1.4766016290148461e-15
lhumerus -41.112006142329605 -16.10406646114005 97.92221215925602
lradius 109.25649266052592
lwrist 28.161926943768144
lhand -29.999351658677448 -0.500418461309069
lfingers 7.125019999999998
lthumb -3.4262148502069927 29.666195044201597
rclavicle 1.1245391004058529e-15 -1.4766016289681805e-15
rhumerus -53.15030045177154 8.890729108839029 -95.77722218819538
rradius 116.73149438365044
rwrist -14.133708492200704
rhand -19.625236696040933 40.58078040583302
rfingers 7.125019999999998
rthumb 5.6588754737124844 10.395651674128032
136
root -0.8239673806116696 17.390757892536193 21.449361273015036 2.07469911178298 -3.594553203970782 -2.805941483364079
lfemur -19.7152312489277 4.188506373424447 -20.645100237897672
ltibia 55.6767603264129
lfoot 6.593377317374506 -12.050954445456718
ltoes -18.831705877886208
rfemur -16.822029393326808 4.579229008764089 29.983794167691396
rtibia 84.77714777739727
rfoot 0.6728554362338652 -9.87637777935855
rtoes -6.4039272677383
lowerback 16.26931343679776 1.5609440601450175 1.9357151282138394
upperback -0.2470920606956506 2.6525855354894596 1.1343239346353717
thorax -9.814558033334208 1.2593937229926073 -0.2979335558796292
lowerneck -17.83067240975493 -4.85196060188175 -2.0959655953949032
upperneck 11.020491777904226 -6.675878470692927 3.6217438836293185
head 6.630160459994453 -3.0082556689999147 0.8740884147468357
lclavicle 1.1245391003350725e-15 -1.4766016290153612e-15
lhumerus -40.50395617716089 -16.247502221895004 97.87825153608038
lradius 108.83336335080631
lwrist 27.858523698693823
lhand -29.741817690231535 -0.18581937320914504
lfingers 7.125019999999998
lthumb -3.705250713889484 29.53352765197577
rclavicle 1.1245391004072347e-15 -1.476601628967154e-15
rhumerus -53.065838531451476 8.923693825726104 -95.91224770017477
rradius 116.58405260772803
rwrist -13.825986525508434
rhand -19.579278678764634 39.965905018147645
rfingers 7.125019999999998
rthumb 5.7088979673187135 9.95311631332701
137
root -0.8224821855369346 17.357780504560832 21.912574755003906 2.036451619958012 -3.4308138867894087 -2.6660496805367457
lfemur -19.557753902373484 4.188414573886559 -20.780301612019635
ltibia 56.09139654694303
lfoot 5.556887540804424 -11.132363762341296
ltoes -18.421538414825577
rfemur -16.802391820046054 4.611339647873377 29.790367499877924
rtibia 85.01874661856407
rfoot 0.874708232425331 -9.820632397714203
rtoes -5.634452533337086
lowerback 16.306034149609644 1.5549033877940004 1.8077892541899054
upperback -0.21591729572696206 2.6200887916190045 1.1173688834478208
thorax -9.94497503362944 1.2410527988489435 -0.2556688719630342
lowerneck -17.96678484357228 -4.842383561142887 -2.0997573481571594
upperneck 10.703038343166835 -6.665806934461715 3.7385000835306625
head 6.469342415305304 -3.0007073676907363 0.9188358136612329
lclavicle 1.1245391003355713e-15 -1.4766016290150938e-15
lhumerus -40.081909581496674 -16.416273258666614 97.88864183310807
lradius 108.54342284226395
lwrist 27.55453950243591
lhand -29.8157011106875 -0.21459400075807972
lfingers 7.125019999999998
lthumb -3.8048708237687157 29.649015862691407
rclavicle 1.1245391004093203e-15 -1.4766016289657094e-15
rhumerus -52.945357576695436 8.991887216384036 -96.04246108898553
rradius 116.41374756873088
rwrist -13.675442291889784
rhand -19.5524006423277 39.40362180227372
rfingers 7.125019999999998
rthumb 5.695324833282458 9.450397266673928
138
root -0.8248485408149471 17.332983232343274 22.494321835674043 2.0219380091486947 -3.1235545332862618 -2.5035500279584273
lfemur -19.478716225569407 4.120067617229215 -20.976206999743212
ltibia 56.60112194107597
lfoot 4.675894559829215 -10.624348546842556
ltoes -17.89802156494806
rfemur -16.781603715871853 4.587209377948168 29.54240900882835
rtibia 85.30864941562369
rfoot 0.7628355766224817 -10.005087225531458
rtoes -4.074890621166308
lowerback 16.359564971236594 1.531759672984367 1.660059989073857
upperback -0.18522303431006182 2.5738009448909955 1.1277731448782573
thorax -10.11259515944664 1.206558039063142 -0.22846819693416365
lowerneck -18.100938776976644 -4.830703362421696 -2.1125724722047248
upperneck 10.397987273278806 -6.649999213636812 3.861090437688902
head 6.330312234575025 -2.9868172634243004 0.9616315830139002
lclavicle 1.1245391003379238e-15 -1.4766016290133713e-15
lhumerus -39.771541864171006 -16.53150418803076 97.88879556692905
lradius 108.37582867844142
lwrist 27.44383359237626
lhand -30.106755200668633 -0.2952471040043002
lfingers 7.125019999999998
lthumb -3.825015954804811 29.874745884407755
rclavicle 1.124539100410927e-15 -1.4766016289645543e-15
rhumerus -52.80271134390914 9.086721431002521 -96.18350469196707
rradius 116.2712713137476
rwrist -13.596265538261063
rhand -19.51694688926319 38.74931656027253
rfingers 7.125019999999998
rthumb 5.767428669338975 9.080850064601913
